<svg width="221" height="41" viewBox="0 0 221 41" fill="none" xmlns="http://www.w3.org/2000/svg">
<path d="M8.28084 16.8859C12.8542 16.8859 16.5617 13.1784 16.5617 8.60506C16.5617 4.03168 12.8542 0.324219 8.28084 0.324219C3.70746 0.324219 0 4.03168 0 8.60506C0 13.1784 3.70746 16.8859 8.28084 16.8859Z" fill="#24273B"/>
<path d="M13.2461 20.4336H3.30905C2.7443 20.4336 2.20269 20.6579 1.80336 21.0573C1.40403 21.4566 1.17969 21.9982 1.17969 22.563V27.0997C1.17953 27.7995 1.31736 28.4925 1.58531 29.139C1.85325 29.7856 2.24605 30.3729 2.74122 30.8675L11.5366 39.6629C11.8506 39.9776 12.2509 40.1921 12.6868 40.2793C13.1228 40.3665 13.5747 40.3225 13.9856 40.1528C14.3965 39.9831 14.7479 39.6954 14.9953 39.3261C15.2427 38.9567 15.3749 38.5223 15.3754 38.0777V22.563C15.3754 21.9982 15.1511 21.4566 14.7517 21.0573C14.3524 20.6579 13.8108 20.4336 13.2461 20.4336V20.4336Z" fill="#24273B"/>
<path d="M30.9967 0.914062H22.2426C21.6779 0.914063 21.1363 1.13841 20.737 1.53774C20.3376 1.93707 20.1133 2.47868 20.1133 3.04342V25.0645C20.1137 25.5091 20.246 25.9435 20.4934 26.3129C20.7408 26.6823 21.0921 26.97 21.503 27.1397C21.9139 27.3093 22.3659 27.3534 22.8019 27.2662C23.2378 27.1789 23.638 26.9644 23.952 26.6497L31.5645 19.0373C32.0597 18.5427 32.4525 17.9554 32.7204 17.3089C32.9884 16.6623 33.1262 15.9693 33.126 15.2695V3.04342C33.126 2.76379 33.0709 2.4869 32.9639 2.22855C32.8569 1.97021 32.7001 1.73547 32.5024 1.53774C32.3046 1.34001 32.0699 1.18316 31.8115 1.07615C31.5532 0.96914 31.2763 0.914062 30.9967 0.914062Z" fill="#24273B"/>
<path d="M66.5848 7.70984H55.3938C55.0734 7.68265 54.7508 7.72108 54.4457 7.82278C54.1406 7.92448 53.8594 8.08731 53.6194 8.30132C53.4001 8.53896 53.2318 8.81902 53.125 9.12422C53.0182 9.42942 52.9751 9.75327 52.9983 10.0758V28.2936C52.9804 28.6316 53.0338 28.9695 53.155 29.2855C53.2762 29.6014 53.4625 29.8884 53.7018 30.1277C53.9411 30.367 54.228 30.5532 54.544 30.6744C54.8599 30.7956 55.1978 30.849 55.5358 30.8311C55.8725 30.8532 56.2101 30.8047 56.5269 30.6885C56.8437 30.5724 57.1327 30.3913 57.3753 30.1568C57.6034 29.9078 57.7794 29.6158 57.8932 29.2979C58.0069 28.98 58.0561 28.6426 58.0378 28.3055V20.9828H65.946C66.5909 21.0353 67.2343 20.864 67.7678 20.4978C67.973 20.3092 68.1328 20.0766 68.2352 19.8174C68.3376 19.5583 68.3801 19.2793 68.3593 19.0014C68.3829 18.7179 68.342 18.4328 68.2395 18.1674C68.1371 17.9021 67.9758 17.6634 67.7678 17.4694C67.2343 17.1032 66.5909 16.9319 65.946 16.9844H58.026V11.7142H66.5848C67.2304 11.765 67.8739 11.5916 68.4066 11.2233C68.6125 11.0352 68.7727 10.8027 68.8752 10.5434C68.9777 10.2841 69.0197 10.0048 68.9981 9.72681C69.0212 9.44428 68.9801 9.16017 68.8776 8.89585C68.7752 8.63153 68.6141 8.39388 68.4066 8.20077C67.8739 7.83246 67.2304 7.65908 66.5848 7.70984V7.70984Z" fill="#24273B"/>
<path d="M78.2619 14.2832C77.1735 14.2853 76.0886 14.4063 75.0265 14.644C74.0581 14.8354 73.122 15.1641 72.2465 15.62C71.8742 15.8024 71.55 16.0699 71.3001 16.4007C71.0949 16.719 70.9937 17.0931 71.0103 17.4713C70.9892 17.9469 71.1381 18.4145 71.4302 18.7903C71.5694 18.9559 71.7446 19.0873 71.9426 19.1744C72.1405 19.2616 72.3557 19.3022 72.5718 19.2931C73.0143 19.2672 73.4461 19.1462 73.8376 18.9382C75.1203 18.3958 76.4828 18.0662 77.8715 17.9623C78.2273 17.9242 78.5871 17.9569 78.9302 18.0584C79.2733 18.16 79.5929 18.3283 79.8708 18.5537C80.3174 19.1149 80.5294 19.8271 80.4623 20.5412V21.1326H79.6164C77.7953 21.0873 75.9747 21.24 74.1866 21.5881C73.0982 21.765 72.0917 22.2755 71.306 23.0491C70.6739 23.8283 70.3554 24.8155 70.4129 25.8172C70.4043 26.7411 70.6698 27.6468 71.1759 28.4198C71.6926 29.2039 72.4121 29.8335 73.2579 30.2416C74.1799 30.6851 75.1924 30.9079 76.2154 30.8922C77.1506 30.9123 78.0734 30.6749 78.883 30.2061C79.6201 29.7758 80.1926 29.1117 80.5096 28.3192V28.5499C80.4983 28.8517 80.5486 29.1526 80.6574 29.4342C80.7662 29.7159 80.9313 29.9725 81.1425 30.1883C81.361 30.4058 81.6217 30.5762 81.9086 30.6891C82.1954 30.802 82.5024 30.855 82.8105 30.8449C83.1232 30.8656 83.4369 30.824 83.7334 30.7224C84.0299 30.6209 84.3032 30.4615 84.5376 30.2534C84.745 30.0294 84.9044 29.7653 85.0061 29.4775C85.1078 29.1896 85.1497 28.8841 85.1291 28.5795V21.2154C85.1291 18.8495 84.5672 17.1283 83.4374 15.9926C82.3077 14.8569 80.6042 14.2832 78.2619 14.2832ZM80.4741 24.0783C80.5118 24.988 80.1984 25.8774 79.5987 26.5625C79.3078 26.8838 78.9499 27.1372 78.5502 27.3048C78.1506 27.4724 77.719 27.5502 77.286 27.5325C77.0078 27.5398 76.731 27.4911 76.4719 27.3895C76.2129 27.2879 75.9768 27.1354 75.7777 26.9411C75.5798 26.7507 75.4246 26.5204 75.3227 26.2654C75.2207 26.0104 75.1741 25.7367 75.1862 25.4623C75.1692 25.1267 75.2638 24.7949 75.4554 24.5188C75.6469 24.2427 75.9246 24.0379 76.2449 23.9363C77.4423 23.5867 78.6903 23.4427 79.9358 23.5104H80.4859L80.4741 24.0783Z" fill="#24273B"/>
<path d="M97.0008 18.0684C97.4153 18.0618 97.8277 18.1279 98.2193 18.2636C98.6401 18.4198 99.0492 18.6056 99.4437 18.8196C99.8518 19.0148 100.183 19.1568 100.431 19.2573C100.687 19.3541 100.957 19.4041 101.23 19.4052C101.434 19.4086 101.637 19.3612 101.818 19.2673C102 19.1733 102.156 19.0358 102.271 18.8669C102.545 18.459 102.682 17.974 102.661 17.4829C102.676 17.1164 102.59 16.7529 102.413 16.4318C102.235 16.1107 101.974 15.8442 101.656 15.6611C100.921 15.2114 100.124 14.8726 99.2899 14.6555C98.4367 14.4176 97.5553 14.2963 96.6696 14.2947C95.1398 14.2647 93.6268 14.6185 92.2689 15.3239C91.0176 16.0026 89.9902 17.03 89.3115 18.2814C88.5856 19.6348 88.2209 21.1525 88.2527 22.688C88.2157 24.2011 88.5572 25.6996 89.2464 27.0472C89.8781 28.2542 90.8539 29.2464 92.0501 29.8982C93.3933 30.601 94.8938 30.9492 96.4093 30.9096C97.3751 30.9115 98.3371 30.7902 99.2721 30.5488C100.121 30.3366 100.932 29.9977 101.68 29.5433C101.995 29.37 102.257 29.1123 102.434 28.7989C102.612 28.4855 102.699 28.1288 102.685 27.7688C102.705 27.2715 102.561 26.7813 102.277 26.3729C102.169 26.1999 102.018 26.0577 101.838 25.9603C101.659 25.8629 101.458 25.8135 101.254 25.8169C100.986 25.814 100.721 25.8642 100.473 25.9648C100.236 26.0594 99.911 26.2073 99.4969 26.4025C99.0732 26.6143 98.6343 26.7942 98.1838 26.9408C97.8025 27.0675 97.4026 27.1295 97.0008 27.1241C96.4775 27.1554 95.9541 27.0648 95.4717 26.8595C94.9894 26.6543 94.5612 26.3399 94.2208 25.9411C93.5204 24.9578 93.1819 23.7624 93.2626 22.5578C93.1797 21.3567 93.5186 20.1643 94.2208 19.1863C94.5687 18.8008 94.9998 18.4997 95.4816 18.306C95.9633 18.1123 96.4829 18.031 97.0008 18.0684Z" fill="#24273B"/>
<path d="M116.387 27.2658L115.476 27.2008C114.972 27.1871 114.493 26.9744 114.145 26.6093C113.812 26.1918 113.649 25.6633 113.69 25.1306V18.3521H115.967C116.557 18.3954 117.144 18.2277 117.623 17.8789C117.811 17.7104 117.959 17.5016 118.055 17.2681C118.151 17.0346 118.194 16.7824 118.179 16.5303C118.179 15.2961 117.442 14.677 115.967 14.6731H113.69V12.1533C113.706 11.8415 113.656 11.5298 113.544 11.2384C113.432 10.947 113.26 10.6824 113.039 10.4617C112.546 10.0436 111.91 9.83174 111.264 9.87016C110.61 9.82954 109.964 10.0412 109.46 10.4617C109.232 10.6781 109.052 10.9411 108.934 11.233C108.815 11.5248 108.761 11.8387 108.774 12.1533V14.6908H107.473C106.892 14.65 106.315 14.8178 105.846 15.164C105.657 15.3357 105.509 15.5475 105.411 15.7838C105.314 16.0201 105.271 16.2751 105.285 16.5303C105.269 16.782 105.31 17.0341 105.405 17.2676C105.5 17.5011 105.647 17.7101 105.835 17.8789C106.303 18.2251 106.88 18.3929 107.461 18.3521H108.763V24.7934C108.763 28.4567 110.661 30.4402 114.459 30.7438L115.369 30.8089C116.108 30.9116 116.861 30.7748 117.517 30.4185C117.72 30.2695 117.891 30.0796 118.017 29.8609C118.144 29.6423 118.223 29.3997 118.25 29.1486C118.277 28.8976 118.252 28.6436 118.176 28.4029C118.099 28.1623 117.973 27.9402 117.806 27.7509C117.402 27.4322 116.901 27.2611 116.387 27.2658V27.2658Z" fill="#24273B"/>
<path d="M129.414 14.3496C127.776 14.3496 126.175 14.8353 124.813 15.7452C123.451 16.6551 122.39 17.9484 121.763 19.4615C121.136 20.9746 120.972 22.6396 121.292 24.246C121.611 25.8523 122.4 27.3278 123.558 28.4859C124.716 29.644 126.192 30.4327 127.798 30.7522C129.404 31.0717 131.069 30.9077 132.583 30.2809C134.096 29.6542 135.389 28.5928 136.299 27.231C137.209 25.8693 137.694 24.2682 137.694 22.6304C137.694 20.4342 136.822 18.328 135.269 16.775C133.716 15.2221 131.61 14.3496 129.414 14.3496V14.3496ZM129.414 27.1672C127.048 27.1672 125.855 25.6392 125.835 22.5831C125.815 19.5271 127.008 17.9971 129.414 17.9932C129.914 17.9636 130.414 18.0514 130.874 18.2497C131.334 18.4479 131.741 18.751 132.064 19.1348C132.687 19.8919 132.996 21.0413 132.992 22.5831C132.984 25.6392 131.787 27.1672 129.402 27.1672H129.414Z" fill="#24273B"/>
<path d="M151.361 14.3467L150.905 14.3822C149.984 14.4409 149.093 14.7318 148.315 15.228C147.51 15.7375 146.889 16.4894 146.54 17.3751V16.4938C146.554 16.199 146.503 15.9046 146.391 15.6317C146.278 15.3587 146.107 15.1139 145.889 14.9145C145.441 14.519 144.86 14.3077 144.263 14.323C143.635 14.3089 143.023 14.5186 142.536 14.9145C142.296 15.117 142.106 15.3726 141.982 15.6611C141.857 15.9496 141.802 16.263 141.82 16.5766V28.5306C141.801 28.855 141.857 29.1793 141.983 29.4788C142.109 29.7782 142.302 30.0447 142.548 30.2577C143.049 30.6621 143.679 30.8722 144.322 30.8492C144.954 30.8694 145.572 30.6592 146.061 30.2577C146.302 30.0421 146.49 29.7746 146.612 29.4753C146.734 29.1761 146.786 28.853 146.765 28.5306V22.32C146.725 21.4295 146.997 20.553 147.534 19.8416C147.866 19.4835 148.266 19.1946 148.711 18.9915C149.156 18.7885 149.636 18.6754 150.125 18.6587L151.1 18.564C151.772 18.5555 152.423 18.327 152.952 17.9134C153.14 17.6951 153.283 17.4415 153.373 17.1673C153.462 16.8931 153.496 16.6038 153.472 16.3164C153.49 16.0361 153.446 15.7554 153.344 15.4939C153.242 15.2323 153.084 14.9963 152.881 14.8022C152.67 14.6291 152.428 14.4998 152.167 14.4216C151.906 14.3434 151.632 14.3179 151.361 14.3467V14.3467Z" fill="#24273B"/>
<path d="M170.345 14.4148C169.928 14.4082 169.518 14.5211 169.162 14.7401C168.787 14.9821 168.497 15.3359 168.334 15.7516L164.43 24.5352L160.396 15.7516C160.207 15.3314 159.901 14.9742 159.515 14.7224C159.16 14.5028 158.75 14.3861 158.332 14.3852C157.699 14.3735 157.082 14.5826 156.587 14.9767C156.352 15.1493 156.161 15.3746 156.028 15.6344C155.896 15.8943 155.826 16.1815 155.824 16.4732C155.829 16.7771 155.895 17.077 156.019 17.3545L161.81 29.2257L159.663 33.6855C159.511 33.9881 159.434 34.3228 159.438 34.6615C159.436 34.9359 159.496 35.2074 159.614 35.4553C159.732 35.7032 159.904 35.9212 160.118 36.0929C160.559 36.4814 161.128 36.6923 161.715 36.6844C162.134 36.6827 162.544 36.5639 162.898 36.3413C163.283 36.0922 163.587 35.7367 163.774 35.318L172.528 17.3604C172.671 17.0778 172.748 16.7663 172.753 16.4495C172.753 16.1692 172.688 15.8926 172.564 15.6412C172.44 15.3899 172.26 15.1706 172.037 15.0004C171.565 14.6027 170.962 14.3941 170.345 14.4148V14.4148Z" fill="#24273B"/>
<path d="M187.404 7.71355H179.218C178.898 7.68636 178.575 7.72479 178.27 7.82649C177.965 7.92819 177.684 8.09102 177.444 8.30503C177.23 8.54508 177.067 8.82624 176.965 9.13133C176.863 9.43643 176.825 9.75905 176.852 10.0795V28.2973C176.852 28.9703 177.12 29.6157 177.595 30.0916C178.071 30.5675 178.717 30.8348 179.39 30.8348C180.063 30.8348 180.708 30.5675 181.184 30.0916C181.66 29.6157 181.927 28.9703 181.927 28.2973V22.0276H187.393C189.885 22.0276 191.825 21.3986 193.213 20.1407C194.603 18.8868 195.295 17.1241 195.295 14.8706C195.295 12.617 194.603 10.8603 193.213 9.60039C191.823 8.34052 189.895 7.71355 187.404 7.71355ZM186.754 18.1888H181.939V11.5641H186.754C189.289 11.5641 190.557 12.6702 190.557 14.8824C190.557 17.0946 189.289 18.1967 186.754 18.1888V18.1888Z" fill="#24273B"/>
<path d="M204.578 14.2832C203.49 14.2853 202.405 14.4063 201.343 14.644C200.374 14.8354 199.438 15.1641 198.563 15.62C198.193 15.8039 197.871 16.0712 197.622 16.4007C197.415 16.7184 197.312 17.0925 197.327 17.4713C197.305 17.948 197.456 18.4165 197.752 18.7903C197.89 18.9565 198.064 19.0884 198.261 19.1756C198.458 19.2629 198.673 19.3031 198.888 19.2931C199.333 19.2673 199.766 19.1463 200.16 18.9382C201.44 18.396 202.801 18.0664 204.188 17.9623C204.908 17.8865 205.629 18.0992 206.193 18.5537C206.64 19.1149 206.852 19.8271 206.784 20.5412V21.1326H205.939C204.118 21.0979 202.3 21.2606 200.515 21.6177C199.426 21.7946 198.42 22.3051 197.634 23.0786C197.002 23.8579 196.684 24.845 196.741 25.8468C196.732 26.7707 196.998 27.6763 197.504 28.4494C198.021 29.2335 198.74 29.8631 199.586 30.2711C200.508 30.7141 201.521 30.9368 202.543 30.9218C203.479 30.9427 204.402 30.7053 205.211 30.2356C205.948 29.8054 206.521 29.1413 206.838 28.3488V28.5795C206.826 28.8812 206.877 29.1821 206.986 29.4638C207.094 29.7455 207.259 30.0021 207.471 30.2179C207.692 30.4333 207.956 30.6012 208.244 30.711C208.533 30.8209 208.842 30.8705 209.15 30.8567C209.462 30.8766 209.775 30.8346 210.07 30.7331C210.366 30.6316 210.638 30.4726 210.872 30.2652C211.08 30.042 211.24 29.7781 211.342 29.49C211.444 29.202 211.485 28.896 211.463 28.5913V21.2154C211.463 18.8495 210.901 17.1283 209.771 15.9926C208.642 14.8569 206.921 14.2832 204.578 14.2832ZM206.796 24.0783C206.832 24.9888 206.517 25.8783 205.915 26.5625C205.624 26.8819 205.267 27.1338 204.868 27.3003C204.47 27.4669 204.04 27.5441 203.608 27.5266C203.329 27.5336 203.052 27.4849 202.792 27.3834C202.532 27.2818 202.294 27.1294 202.094 26.9351C201.896 26.7448 201.741 26.5145 201.639 26.2595C201.537 26.0045 201.49 25.7308 201.502 25.4564C201.486 25.121 201.582 24.7897 201.773 24.5138C201.964 24.2379 202.241 24.0328 202.561 23.9304C203.759 23.5808 205.007 23.4368 206.252 23.5045H206.808L206.796 24.0783Z" fill="#24273B"/>
<path d="M219.689 8.13615C219.2 7.73563 218.582 7.52555 217.95 7.54467C217.307 7.52174 216.677 7.73177 216.176 8.13615C215.936 8.35087 215.748 8.61759 215.627 8.91591C215.506 9.21423 215.455 9.53626 215.478 9.85739V28.5307C215.455 28.8527 215.506 29.1756 215.627 29.4749C215.748 29.7742 215.936 30.0419 216.176 30.2578C216.677 30.6622 217.307 30.8722 217.95 30.8493C218.582 30.8684 219.2 30.6584 219.689 30.2578C219.93 30.0422 220.118 29.7747 220.24 29.4754C220.362 29.1762 220.415 28.8531 220.393 28.5307V9.85739C220.415 9.53584 220.362 9.21365 220.24 8.91537C220.118 8.61709 219.93 8.35058 219.689 8.13615V8.13615Z" fill="#24273B"/>
</svg>
